# xmcd
#
# Track frame offsets: 
#        150
#        14996
#        27383
#        40500
#        53382
#        67435
#        81834
#        95440
#        109155
#        123218
#        137144
#        148956
#        161991
#        176175
#        190278
#        205066
#        219444
#        233158
#        246963
#        260525
#        274166
#        287426
#        300720
#        308806
#        319034
#        329010
#
# Disc length: 4510 seconds
#
# Revision: 3
# Processed by: cddbd v1.5.2PL0 Copyright (c) Steve Scherf et al.
# Submitted via: ExactAudioCopyFreeDBPlugin 1.0
#
DISCID=91119c1a
DTITLE=Leadbelly - Important Recordings 1934-1949 [Disc C] Leadbelly i
DTITLE=n the Studio^ 1935-1943
DYEAR=2006
DGENRE=Blues
TTITLE0=Pig Meat Papa
TTITLE1=Bull Cow
TTITLE2=My Baby Quit Me
TTITLE3=Frankie and Albert, Part 1
TTITLE4=Frankie and Albert, Part 2
TTITLE5=Poor Howard-Green Corn
TTITLE6=The Gallis Pole
TTITLE7=Pick a Bale of Cotton
TTITLE8=Whoa Back, Buck
TTITLE9=Midnihgt Special
TTITLE10=Rock Island Line
TTITLE11=Good Morning Blues
TTITLE12=T.B. Blues
TTITLE13=Red Cross Store Blues
TTITLE14=Sail On, Little Girl, Sail On
TTITLE15=I'm On My Last Go-Round
TTITLE16=New York City
TTITLE17=Grey Goose
TTITLE18=Stew Ball
TTITLE19=Take This Hammer
TTITLE20=Can't You Line 'Em
TTITLE21=Ham an' Eggs
TTITLE22=On a Monday
TTITLE23=John Henry
TTITLE24=How Long
TTITLE25=Ain't You Glad
EXTD=
EXTT0=
EXTT1=
EXTT2=
EXTT3=
EXTT4=
EXTT5=
EXTT6=
EXTT7=
EXTT8=
EXTT9=
EXTT10=
EXTT11=
EXTT12=
EXTT13=
EXTT14=
EXTT15=
EXTT16=
EXTT17=
EXTT18=
EXTT19=
EXTT20=
EXTT21=
EXTT22=
EXTT23=
EXTT24=
EXTT25=
PLAYORDER=
